# xmcd
#
# Track frame offsets: 
#        150
#        18853
#        36671
#        53992
#        68001
#        72357
#        86455
#        90822
#
# Disc length: 1516 seconds
#
# Revision: 0
# Processed by: cddbd v1.5.2PL0 Copyright (c) Steve Scherf et al.
# Submitted via: ExactAudioCopy v0.99pb5
#
DISCID=5e05ea08
DTITLE=A'CAPPELLA EXPRESSS - DUNHILL
DYEAR=1900
DGENRE=
TTITLE0=Around The World ExpreSSS (mus. E. Beriashvili, lyr. D. Poleno
TTITLE0=va, arr. D. Polenova)
TTITLE1=Copernicus (mus. Basya Trzetrzelewska, lyr. D. White, arr. A. 
TTITLE1=Tunik)
TTITLE2=Middle Of The River (mus. E. Kanapyanov, lyr. L. Fellow, arr. 
TTITLE2=D. Polenova)
TTITLE3=Go Down Moses (afro-american spiritual, arr. E. Beriashvili)
TTITLE4=Voice meSSSage (mus. A. Tunik)
TTITLE5=Not Today (mus. A. Yunik, lyr. A. Kosacheva, arr. A. Tunik)
TTITLE6=Swing Lounge (mus. and lyr. and arr. E. Beriashvili)
TTITLE7=Amazing Grace (afro-american spiritual, arr. D. Polenova)
EXTD=
EXTT0=
EXTT1=
EXTT2=
EXTT3=
EXTT4=
EXTT5=
EXTT6=
EXTT7=
PLAYORDER=
